<?xml version="1.0" encoding="utf-8"?>
<!-- Generator: Adobe Illustrator 16.0.0, SVG Export Plug-In . SVG Version: 6.00 Build 0)  -->
<!DOCTYPE svg PUBLIC "-//W3C//DTD SVG 1.1//EN" "http://www.w3.org/Graphics/SVG/1.1/DTD/svg11.dtd">
<svg version="1.1" id="Capa_1" xmlns="http://www.w3.org/2000/svg" xmlns:xlink="http://www.w3.org/1999/xlink" x="0px" y="0px"
	 width="400px" height="175.502px" viewBox="0 0 400 175.502" enable-background="new 0 0 400 175.502" xml:space="preserve">
<g id="Capa_2">
	<rect fill="#E2061E" width="400" height="175.502"/>
	<g>
		<path fill="#FFFFFF" d="M94.924,73.249c-3.375,0-5.316,0.573-5.316,0.573l-0.231,2.359c-10.633-6.163-25.03-4.744-34.409,2.29
			c-9.379,7.034-13.523,15.706-13.523,24.811c0,9.107,4.976,15.487,8.33,18.308c3.354,2.822,8.179,5.358,12.187,6.094
			c4.008,0.738,10.96,1.064,15.745-0.368c4.785-1.431,7.096-3.047,7.096-3.047c4.868,3.373,10.135,1.943,10.135,1.943l5.221-52.378
			C100.159,73.834,98.298,73.249,94.924,73.249z M84.794,119.259l-3.544-4.472c0,0-4.253,4.034-11.124,3.708
			s-10.906-1.909-15.05-6.872c-4.145-4.961-4.308-14.833,1.309-21.321c5.617-6.489,11.288-8.016,17.505-8.18
			c6.216-0.164,11.015,2.617,14.177,5.944L84.794,119.259z"/>
		<path fill="#FFFFFF" d="M111.467,47.831l-6.523,62.717c0,0,1.881,0.654,4.948,0.654c3.067,0,5.521-0.533,5.521-0.533l2.331-22.493
			c0,0,6.053-6.094,16.072-6.094c10.02,0,17.586,7.443,17.586,16.236c0,8.793-6.298,15.583-12.556,18.241
			c-6.257,2.657-16.563,3.437-23.025-4.54c0,0-4.294,2.291-8.138,6.953c0,0,6.952,9.34,21.186,9.34
			c14.232,0,24.47-8.836,28.723-15.815c4.118-6.758,8.681-20.657-2.427-32.009c-11.151-11.397-28.164-8.943-36.016-4.308
			l2.835-28.35C121.984,47.831,117.581,46.475,111.467,47.831z"/>
		<path fill="#FFFFFF" d="M211.904,88.34c0,0,4.035-2.127,7.879-7.334c0,0-6.842-8.725-20.857-8.725
			c-13.169,0-21.798,7.921-21.798,7.921s-11.301,8.792-11.301,22.644c0,13.851,11.043,25.467,26.979,25.467
			c14.411,0,22.863-8.617,22.863-8.617s-1.637-4.308-6.271-7.58c0,0-5.89,6.38-15.214,6.38s-17.667-6.544-17.667-16.577
			c0-10.033,9.707-19.795,21.485-19.795C207.161,82.124,211.904,88.34,211.904,88.34z"/>
		<path fill="#FFFFFF" d="M266.381,76.18c0,0-5.617-3.899-14.833-3.899c-9.215,0-18.349,3.954-24.565,10.497
			c-6.215,6.543-8.479,13.905-8.479,20.286c0,6.379,2.398,14.397,9.925,19.794c7.355,5.276,14.341,5.455,17.722,5.455
			c3.381,0,13.47-0.929,22.686-9.272c0,0-2.398-4.361-6.707-7.034c0,0-5.835,6.434-15.651,6.434c-9.814,0-17.45-7.36-17.45-16.032
			c0-9.542,8.125-20.285,21.649-20.285c9.87,0,14.45,5.944,14.45,5.944l-2.29,22.576c0,0,4.417,1.308,10.579-0.055l6.598-62.711
			c0,0-4.962-1.526-10.634,0l-2.926,28.342L266.381,76.18z"/>
		<path fill="#FFFFFF" d="M281.486,126.676c0,0,4.417,1.308,10.58-0.056l5.515-52.768c0,0-4.962-1.527-10.634,0L281.486,126.676z"/>
		<path fill="#FFFFFF" d="M293.572,55.431c3.805,0,6.891,3.07,6.891,6.857s-3.086,6.857-6.891,6.857
			c-3.807,0-6.892-3.07-6.892-6.857C286.68,58.501,289.765,55.431,293.572,55.431z"/>
		<path fill="#FFFFFF" d="M345.559,73.943c-7.798-2.781-14.887-1.908-19.522,0c-4.636,1.909-8.574,5.507-8.574,5.507l0,0
			l0.585-5.598c0,0-4.962-1.527-10.633,0l-5.46,52.823c0,0,4.417,1.308,10.58-0.056l3.87-37.021
			c6.02-8.432,17.566-8.076,18.031-8.076c0.468,0,5.453-0.327,9.706,3.491c4.253,3.816,3.381,9.76,3.381,9.76l-3.216,31.738
			c5.018,1.418,10.469,0.108,10.469,0.108s2.346-20.612,3.6-31.026C359.628,85.178,353.357,76.726,345.559,73.943z"/>
	</g>
</g>
</svg>
